<?xml version="1.0" encoding="utf-8"?>
<!-- Generator: Adobe Illustrator 22.1.0, SVG Export Plug-In . SVG Version: 6.00 Build 0)  -->
<svg version="1.1" id="Layer_1" xmlns="http://www.w3.org/2000/svg" xmlns:xlink="http://www.w3.org/1999/xlink" x="0px" y="0px"
	 viewBox="0 0 50 50" style="enable-background:new 0 0 50 50;" xml:space="preserve">
<path d="M17.6,27.9l0.4-1.4c0,0,0.2-0.4-0.2-0.8c-0.4-0.5-1.3-1.4-1.3-3.6c0-3.9,3.1-8.2,8.7-8.2c5.5,0,7.4,3.6,7.4,6.6
	c0,3.7-1.8,9.2-5.5,9.2c-2.3,0-3-1.8-3-2.7c0-0.3,0.1-0.6,0.1-0.7c0-0.1,1-3.2,1.3-4.2c0.7-2.4,0.1-4.4-2.1-4.4
	c-3.1,0-4.2,4.4-2.9,7.2L18.3,34c0,0-0.3,1.5-0.4,2.4c-0.1,1.4,0.1,3.3,0.2,3.9c0,0.4,0,0.6,0.2,0.7c0.2,0,0.5-0.3,0.8-0.7
	c0.3-0.5,1.5-2.1,2-3.2c0.4-0.9,0.5-1,0.9-2.6c0.4-1.6,1-4,1-4s1.2,2.1,4.5,2.1c4.7,0,9.5-4.1,9.5-11.7c0-6.2-5.4-10-11.4-10
	C17.9,11,13,16.4,13,21.6c0,5.1,2.8,6.3,3.4,6.6C17,28.6,17.4,28.4,17.6,27.9z"/>
</svg>
